#Unknown ASF file
:ROOT_YZX
:FOOT_3DOF
:FULLY-SPECIFIED
:DEGREES
432
root 3.47846 17.5792 10.8791 -1.55799 175 3.46022
lfemur 13.456 -1.85631 -25.5048
ltibia 29.8317
lfoot -2.89839 0 -12.3895
ltoes -30.1155
rfemur -28.7587 0.456395 18.1047
rtibia 35.5883
rfoot -3.71711 0 -0.784055
rtoes -0.963433
lowerback 11.0357 -2.43488 -7.29182
upperback 1.5592 -3.7488 3.54305
thorax -3.81946 -1.67273 8.40241
lowerneck -11.9204 -7.75375 -17.492
upperneck 5.6334 -9.16414 16.6506
head 5.2796 -3.98797 7.35802
lclavicle -1.85864e-014 1.90833e-014
lhumerus -27.3789 -0.402972 86.7417
lradius 40.8245
lwrist 5.78566
lhand -17.8512 27.6753
lfingers 7.12502
lthumb 8.41395 57.4877
rclavicle -1.85864e-014 1.90833e-014
rhumerus -41.8392 -18.0394 -69.4885
rradius 22.3422
rwrist 8.33413
rhand -21.1474 12.4468
rfingers 7.12502
rthumb 5.23198 -17.4686
433
root 3.61869 17.5958 10.1854 -2.24371 174.645 2.52885
lfemur 10.3117 -0.566532 -23.2714
ltibia 38.1906
lfoot 7.21856 0 -13.9199
ltoes -28.0114
rfemur -26.4093 1.12618 19.666
rtibia 37.4585
rfoot -6.48645 0 -0.747282
rtoes -1.95912
lowerback 11.1963 -2.49113 -6.41382
upperback 1.4834 -3.70269 3.77972
thorax -4.03945 -1.6409 8.16083
lowerneck -11.3773 -7.58444 -17.5423
upperneck 6.1796 -9.04619 16.3537
head 5.31712 -3.97935 7.29459
lclavicle 3.23025e-014 5.56597e-015
lhumerus -29.6717 -0.751491 87.5277
lradius 41.093
lwrist 5.3468
lhand -11.8868 31.5116
lfingers 7.12502
lthumb 14.1661 61.0086
rclavicle 3.23025e-014 5.56597e-015
rhumerus -42.3536 -16.3549 -70.2692
rradius 23.3434
rwrist 6.70523
rhand -20.9971 12.5797
rfingers 7.12502
rthumb 5.3771 -17.3321
434
root 3.77206 17.5785 9.55942 -2.78542 174.358 1.09039
lfemur 5.54011 1.14713 -19.964
ltibia 47.8704
lfoot 16.3147 0 -14.4893
ltoes -22.4872
rfemur -24.3426 2.17861 21.8904
rtibia 39.1594
rfoot -9.27377 0 -2.12126
rtoes -4.97288
lowerback 11.7177 -2.33534 -5.40308
upperback 1.45913 -3.32871 4.24382
thorax -4.45409 -1.42999 8.06863
lowerneck -11.4141 -7.69347 -17.3744
upperneck 6.6157 -9.19945 15.7061
head 5.43626 -4.08971 7.0288
lclavicle -3.0911e-014 1.27222e-014
lhumerus -31.2156 -2.51353 88.6939
lradius 41.4659
lwrist 5.07019
lhand -11.7764 30.584
lfingers 7.12502
lthumb 14.2725 60.0735
rclavicle -3.0911e-014 1.27222e-014
rhumerus -42.0243 -14.8134 -71.3032
rradius 24.3804
rwrist 5.04069
rhand -20.8113 10.3463
rfingers 7.12502
rthumb 5.55656 -19.5608
435
root 3.91286 17.5312 8.9436 -3.78102 173.314 0.224717
lfemur 1.58934 3.53673 -17.4499
ltibia 56.9325
lfoot 21.0965 0 -14.1911
ltoes -18.6102
rfemur -21.7344 2.93667 23.5505
rtibia 40.7392
rfoot -12.3261 0 -2.41731
rtoes -4.5458
lowerback 12.2228 -1.90099 -4.68154
upperback 1.88122 -2.63233 4.20093
thorax -4.44502 -1.08829 7.5183
lowerneck -11.0452 -7.80006 -17.5349
upperneck 6.29989 -9.38316 16.0426
head 5.33728 -4.17789 7.15437
lclavicle -1.64991e-014 2.3059e-014
lhumerus -32.7339 -3.41257 89.2294
lradius 42.6533
lwrist 3.81018
lhand -11.2227 29.735
lfingers 7.12502
lthumb 14.806 59.186
rclavicle -1.64991e-014 2.3059e-014
rhumerus -41.7169 -12.5425 -73.4194
rradius 26.6562
rwrist 3.14205
rhand -20.0762 10.4418
rfingers 7.12502
rthumb 6.26629 -19.4455
436
root 4.06597 17.4792 8.37296 -4.52768 173.511 -1.1988
lfemur -3.21819 5.13006 -14.3017
ltibia 65.2896
lfoot 13.0846 0 -11.9962
ltoes -23.896
rfemur -18.9158 3.40399 25.8168
rtibia 41.4192
rfoot -14.8526 0 -3.87755
rtoes -6.76803
lowerback 12.6682 -1.93384 -3.7139
upperback 2.14709 -2.48798 4.43499
thorax -4.46576 -1.00974 7.20299
lowerneck -10.4704 -8.00655 -17.9578
upperneck 5.9597 -9.69166 16.2649
head 5.22492 -4.35343 7.27454
lclavicle 1.72943e-014 7.95139e-016
lhumerus -33.3638 -3.74487 89.6003
lradius 42.3343
lwrist 3.34289
lhand -10.8481 29.296
lfingers 7.12502
lthumb 15.1668 58.7201
rclavicle 1.72943e-014 7.95139e-016
rhumerus -39.9989 -12.1421 -74.2666
rradius 26.2832
rwrist 3.97166
rhand -19.896 11.7282
rfingers 7.12502
rthumb 6.44017 -18.1539
